<svg width="90" height="90" viewBox="0 0 90 90" fill="none" xmlns="http://www.w3.org/2000/svg">
<g clip-path="url(#clip0_1_154)">
<path d="M80.1306 81.5678C66.359 92.8099 23.358 92.8099 9.8674 81.5678C-3.9042 70.3257 -2.49896 22.2657 9.8674 9.61833C22.2338 -3.02903 67.7643 -3.02903 80.1306 9.61833C92.497 22.2657 93.9022 70.3259 80.1306 81.5678Z" fill="#8DC640"/>
<g opacity="0.2">
<path opacity="0.2" d="M45.282 61.8938C32.9157 71.7306 19.1441 76.7896 6.2157 77.0706C-3.34017 60.7695 -1.37272 21.1412 9.86941 9.61807C19.9873 -0.780831 51.7462 -2.74829 70.0148 3.7159C74.5115 22.2654 65.2368 45.8737 45.282 61.8938Z" fill="white"/>
</g>
<path d="M38.5348 70.0445C36.5673 70.0445 34.6001 69.2013 33.4758 67.515L17.737 47.2793C15.4885 44.4688 16.0507 40.5341 18.8612 38.2856C21.6717 36.0371 25.6064 36.5994 27.8549 39.4098L38.5348 53.1814L62.1433 22.5468C64.3917 19.7363 68.3264 19.1741 71.1369 21.4225C73.9474 23.671 74.5096 27.6057 72.2612 30.4162L43.5937 67.515C42.1885 68.9203 40.5022 70.0445 38.5348 70.0445Z" fill="white"/>
</g>
<defs>
<clipPath id="clip0_1_154">
<rect width="90" height="90" fill="white" transform="translate(0 -0.000976562)"/>
</clipPath>
</defs>
</svg>
