<svg width="16" height="10" viewBox="0 0 16 10" fill="none" xmlns="http://www.w3.org/2000/svg">
<path d="M8.62432 9.44445L15.7444 2.32424C15.9092 2.15956 16 1.93973 16 1.70532C16 1.47092 15.9092 1.25108 15.7444 1.0864L15.2202 0.562047C14.8786 0.220846 14.3234 0.220846 13.9823 0.562046L8.00332 6.54105L2.01768 0.555412C1.85286 0.39073 1.63316 0.299804 1.39888 0.299804C1.16435 0.299804 0.944643 0.39073 0.779701 0.555412L0.255608 1.07977C0.0907964 1.24458 9.02773e-07 1.46428 8.92527e-07 1.69869C8.82281e-07 1.93309 0.0907964 2.15293 0.255608 2.31761L7.38218 9.44445C7.54752 9.60952 7.76826 9.70018 8.00293 9.69966C8.2385 9.70018 8.45912 9.60952 8.62432 9.44445Z" fill="#3351AA"/>
</svg>
