<svg width="18" height="18" viewBox="0 0 18 18" fill="none" xmlns="http://www.w3.org/2000/svg">
<path d="M10.3559 9.00196L1.31671 17.7061C0.893415 17.4168 0.642098 16.9356 0.646542 16.4229V1.58098C0.642098 1.06831 0.893415 0.587133 1.31671 0.297852L10.3559 9.00196Z" fill="#2196F3"/>
<path d="M13.5204 5.96128L10.3575 9.00159L1.31836 0.297479C1.35242 0.271083 1.38789 0.246526 1.42459 0.223923C1.90232 -0.0656265 2.49905 -0.0749742 2.98563 0.199404L13.5204 5.96128Z" fill="#4CAF50"/>
<path d="M17.3534 9.00125C17.3593 9.58001 17.0448 10.1146 16.5361 10.3907L13.5203 12.0416L10.3574 9.00125L13.5203 5.96094L16.5361 7.61185C17.0448 7.88791 17.3593 8.4225 17.3534 9.00125Z" fill="#FFC107"/>
<path d="M13.5204 12.0423L2.98563 17.8041C2.49797 18.0743 1.90351 18.0649 1.42459 17.7796C1.38789 17.757 1.35242 17.7325 1.31836 17.7061L10.3576 9.00195L13.5204 12.0423Z" fill="#F44336"/>
</svg>
