<svg width="11" height="15" viewBox="0 0 11 15" fill="none" xmlns="http://www.w3.org/2000/svg">
<path d="M9.94174 2.56868C9.0314 0.997661 7.41445 0.0378662 5.61635 0.00118652C5.53959 -0.000395508 5.46234 -0.000395508 5.38555 0.00118652C3.58748 0.0378662 1.97053 0.997661 1.06016 2.56868C0.129631 4.1745 0.104172 6.1034 0.992043 7.72853L4.71166 14.5367C4.71333 14.5398 4.715 14.5428 4.71673 14.5458C4.88038 14.8302 5.17356 15 5.50101 15C5.82843 15 6.1216 14.8302 6.28523 14.5458C6.28696 14.5428 6.28863 14.5398 6.2903 14.5367L10.0099 7.72853C10.8977 6.1034 10.8723 4.1745 9.94174 2.56868V2.56868ZM5.50095 6.79689C4.33783 6.79689 3.39157 5.85063 3.39157 4.68751C3.39157 3.5244 4.33783 2.57814 5.50095 2.57814C6.66406 2.57814 7.61032 3.5244 7.61032 4.68751C7.61032 5.85063 6.66409 6.79689 5.50095 6.79689Z" fill="white"/>
</svg>
