<svg width="20" height="20" viewBox="0 0 20 20" fill="none" xmlns="http://www.w3.org/2000/svg">
<path d="M19.1667 15.8333H16.9475C16.5867 14.6325 15.4833 13.75 14.1667 13.75C12.85 13.75 11.7475 14.6325 11.3859 15.8333H0.83332C0.37332 15.8333 0 16.2067 0 16.6667C0 17.1267 0.37332 17.5 0.83332 17.5H11.3858C11.7466 18.7008 12.85 19.5833 14.1666 19.5833C15.4833 19.5833 16.5858 18.7008 16.9475 17.5H19.1666C19.6275 17.5 20 17.1267 20 16.6667C20 16.2067 19.6275 15.8333 19.1667 15.8333ZM14.1667 17.9167C13.4775 17.9167 12.9167 17.3559 12.9167 16.6667C12.9167 15.9775 13.4775 15.4167 14.1667 15.4167C14.8559 15.4167 15.4167 15.9775 15.4167 16.6667C15.4167 17.3559 14.8558 17.9167 14.1667 17.9167Z" fill="#33ACAA"/>
<path d="M19.1667 2.50031H16.9475C16.5858 1.29949 15.4833 0.416992 14.1667 0.416992C12.85 0.416992 11.7475 1.29949 11.3858 2.50031H0.83332C0.37332 2.50031 0 2.87363 0 3.33363C0 3.79363 0.37332 4.16695 0.83332 4.16695H11.3858C11.7475 5.36781 12.85 6.25031 14.1667 6.25031C15.4834 6.25031 16.5859 5.36781 16.9475 4.16699H19.1667C19.6275 4.16699 20 3.79367 20 3.33367C20 2.87367 19.6275 2.50031 19.1667 2.50031ZM14.1667 4.58363C13.4775 4.58363 12.9167 4.02281 12.9167 3.33363C12.9167 2.64445 13.4775 2.08363 14.1667 2.08363C14.8559 2.08363 15.4167 2.64445 15.4167 3.33363C15.4167 4.02281 14.8558 4.58363 14.1667 4.58363Z" fill="#33ACAA"/>
<path d="M19.1667 9.16633H8.61418C8.2525 7.96551 7.15 7.08301 5.83336 7.08301C4.51672 7.08301 3.41418 7.96551 3.05254 9.16633H0.83332C0.37332 9.16633 0 9.53965 0 9.99965C0 10.4597 0.37332 10.833 0.83332 10.833H3.0525C3.41418 12.0338 4.51668 12.9163 5.83332 12.9163C7.14996 12.9163 8.2525 12.0338 8.61414 10.833H19.1666C19.6275 10.833 20 10.4597 20 9.99965C20 9.53965 19.6275 9.16633 19.1667 9.16633ZM5.83332 11.2497C5.14414 11.2497 4.58332 10.6888 4.58332 9.99965C4.58332 9.31047 5.14414 8.74965 5.83332 8.74965C6.5225 8.74965 7.08332 9.31047 7.08332 9.99965C7.08332 10.6888 6.5225 11.2497 5.83332 11.2497Z" fill="#33ACAA"/>
</svg>
